HIERARCHY
ROOT mixamorig:Hips
{
	OFFSET 0.000000 201.639420 0.000000
	CHANNELS 6 Xposition Yposition Zposition Xrotation Yrotation Zrotation
	JOINT mixamorig:Spine
	{
		OFFSET 0.006200 19.524994 -2.481800
		CHANNELS 3 Xrotation Yrotation Zrotation
		JOINT mixamorig:Spine1
		{
			OFFSET -0.000900 22.835007 -2.825400
			CHANNELS 3 Xrotation Yrotation Zrotation
			JOINT mixamorig:Spine2
			{
				OFFSET -0.020600 26.552490 -3.193300
				CHANNELS 3 Xrotation Yrotation Zrotation
				JOINT mixamorig:Neck
				{
					OFFSET -0.060000 30.701813 1.352200
					CHANNELS 3 Xrotation Yrotation Zrotation
					JOINT mixamorig:Head
					{
						OFFSET -0.087200 22.547607 3.670900
						CHANNELS 3 Xrotation Yrotation Zrotation
						JOINT mixamorig:HeadTop_End
						{
							OFFSET -0.830600 40.355194 7.893500
							CHANNELS 3 Xrotation Yrotation Zrotation
							End Site
							{
								OFFSET 0.000000 30.592346 0.000000
							}
						}
						JOINT mixamorig:RightEye
						{
							OFFSET -6.302100 18.118591 16.197100
							CHANNELS 3 Xrotation Yrotation Zrotation
							End Site
							{
								OFFSET 0.000000 30.592346 0.000000
							}
						}
						JOINT mixamorig:LeftEye
						{
							OFFSET 6.741500 18.382690 16.401899
							CHANNELS 3 Xrotation Yrotation Zrotation
							End Site
							{
								OFFSET 0.000000 30.592346 0.000000
							}
						}
					}
				}
				JOINT mixamorig:LeftShoulder
				{
					OFFSET 11.924900 18.230499 1.425400
					CHANNELS 3 Xrotation Yrotation Zrotation
					JOINT mixamorig:LeftArm
					{
						OFFSET 25.435989 -0.697632 -5.229300
						CHANNELS 3 Xrotation Yrotation Zrotation
						JOINT mixamorig:LeftForeArm
						{
							OFFSET 54.684776 0.000000 0.000000
							CHANNELS 3 Xrotation Yrotation Zrotation
							JOINT mixamorig:LeftHand
							{
								OFFSET 55.098175 0.000000 0.000000
								CHANNELS 3 Xrotation Yrotation Zrotation
								JOINT mixamorig:LeftHandMiddle1
								{
									OFFSET 23.369751 0.000000 0.000000
									CHANNELS 3 Xrotation Yrotation Zrotation
									JOINT mixamorig:LeftHandMiddle2
									{
										OFFSET 6.378677 0.000000 0.000000
										CHANNELS 3 Xrotation Yrotation Zrotation
										JOINT mixamorig:LeftHandMiddle3
										{
											OFFSET 6.148331 0.000000 0.000000
											CHANNELS 3 Xrotation Yrotation Zrotation
											JOINT mixamorig:LeftHandMiddle4
											{
												OFFSET 6.582504 0.000000 0.000000
												CHANNELS 3 Xrotation Yrotation Zrotation
												End Site
												{
													OFFSET -1.168900 6.395691 1.028606
												}
											}
										}
									}
								}
								JOINT mixamorig:LeftHandThumb1
								{
									OFFSET 7.235672 -3.848206 5.434273
									CHANNELS 3 Xrotation Yrotation Zrotation
									JOINT mixamorig:LeftHandThumb2
									{
										OFFSET 6.568451 -3.792297 3.792300
										CHANNELS 3 Xrotation Yrotation Zrotation
										JOINT mixamorig:LeftHandThumb3
										{
											OFFSET 6.063080 -3.500519 3.500518
											CHANNELS 3 Xrotation Yrotation Zrotation
											JOINT mixamorig:LeftHandThumb4
											{
												OFFSET 4.793182 -2.767334 2.767349
												CHANNELS 3 Xrotation Yrotation Zrotation
												End Site
												{
													OFFSET 0.101639 6.054260 1.275483
												}
											}
										}
									}
								}
								JOINT mixamorig:LeftHandIndex1
								{
									OFFSET 23.101074 -0.309540 4.992809
									CHANNELS 3 Xrotation Yrotation Zrotation
									JOINT mixamorig:LeftHandIndex2
									{
										OFFSET 6.226883 0.000000 0.000000
										CHANNELS 3 Xrotation Yrotation Zrotation
										JOINT mixamorig:LeftHandIndex3
										{
											OFFSET 6.094330 0.000000 0.000000
											CHANNELS 3 Xrotation Yrotation Zrotation
											JOINT mixamorig:LeftHandIndex4
											{
												OFFSET 5.482605 0.000000 0.000000
												CHANNELS 3 Xrotation Yrotation Zrotation
												End Site
												{
													OFFSET -1.427902 5.233032 0.797164
												}
											}
										}
									}
								}
								JOINT mixamorig:LeftHandRing1
								{
									OFFSET 22.299240 0.021149 -3.964172
									CHANNELS 3 Xrotation Yrotation Zrotation
									JOINT mixamorig:LeftHandRing2
									{
										OFFSET 6.321869 0.000000 0.000000
										CHANNELS 3 Xrotation Yrotation Zrotation
										JOINT mixamorig:LeftHandRing3
										{
											OFFSET 5.899796 0.000000 0.000000
											CHANNELS 3 Xrotation Yrotation Zrotation
											JOINT mixamorig:LeftHandRing4
											{
												OFFSET 6.517899 0.000000 0.000000
												CHANNELS 3 Xrotation Yrotation Zrotation
												End Site
												{
													OFFSET -1.637299 6.232208 0.980890
												}
											}
										}
									}
								}
								JOINT mixamorig:LeftHandPinky1
								{
									OFFSET 20.463791 -0.302338 -8.562233
									CHANNELS 3 Xrotation Yrotation Zrotation
									JOINT mixamorig:LeftHandPinky2
									{
										OFFSET 6.908646 0.000000 0.000000
										CHANNELS 3 Xrotation Yrotation Zrotation
										JOINT mixamorig:LeftHandPinky3
										{
											OFFSET 4.622849 0.000000 0.000000
											CHANNELS 3 Xrotation Yrotation Zrotation
											JOINT mixamorig:LeftHandPinky4
											{
												OFFSET 5.216080 0.000000 0.000000
												CHANNELS 3 Xrotation Yrotation Zrotation
												End Site
												{
													OFFSET -0.606308 5.116241 0.814926
												}
											}
										}
									}
								}
							}
						}
					}
				}
				JOINT mixamorig:RightShoulder
				{
					OFFSET -12.001300 18.284088 1.348900
					CHANNELS 3 Xrotation Yrotation Zrotation
					JOINT mixamorig:RightArm
					{
						OFFSET -25.308500 -0.751312 -5.164599
						CHANNELS 3 Xrotation Yrotation Zrotation
						JOINT mixamorig:RightForeArm
						{
							OFFSET -54.684429 0.000000 0.000000
							CHANNELS 3 Xrotation Yrotation Zrotation
							JOINT mixamorig:RightHand
							{
								OFFSET -55.150291 0.000000 0.000000
								CHANNELS 3 Xrotation Yrotation Zrotation
								JOINT mixamorig:RightHandMiddle1
								{
									OFFSET -23.317566 0.000000 0.000000
									CHANNELS 3 Xrotation Yrotation Zrotation
									JOINT mixamorig:RightHandMiddle2
									{
										OFFSET -6.378403 0.000000 0.000000
										CHANNELS 3 Xrotation Yrotation Zrotation
										JOINT mixamorig:RightHandMiddle3
										{
											OFFSET -6.148193 0.000000 0.000000
											CHANNELS 3 Xrotation Yrotation Zrotation
											JOINT mixamorig:RightHandMiddle4
											{
												OFFSET -6.583389 0.000000 0.000000
												CHANNELS 3 Xrotation Yrotation Zrotation
												End Site
												{
													OFFSET 1.171692 6.395905 1.029786
												}
											}
										}
									}
								}
								JOINT mixamorig:RightHandThumb1
								{
									OFFSET -7.190521 -3.860474 5.435846
									CHANNELS 3 Xrotation Yrotation Zrotation
									JOINT mixamorig:RightHandThumb2
									{
										OFFSET -6.567429 -3.791718 3.791708
										CHANNELS 3 Xrotation Yrotation Zrotation
										JOINT mixamorig:RightHandThumb3
										{
											OFFSET -6.062469 -3.500153 3.500166
											CHANNELS 3 Xrotation Yrotation Zrotation
											JOINT mixamorig:RightHandThumb4
											{
												OFFSET -4.792618 -2.767029 2.767022
												CHANNELS 3 Xrotation Yrotation Zrotation
												End Site
												{
													OFFSET -0.100327 6.053253 1.276754
												}
											}
										}
									}
								}
								JOINT mixamorig:RightHandIndex1
								{
									OFFSET -23.048981 -0.310791 4.992554
									CHANNELS 3 Xrotation Yrotation Zrotation
									JOINT mixamorig:RightHandIndex2
									{
										OFFSET -6.227539 0.000000 0.000000
										CHANNELS 3 Xrotation Yrotation Zrotation
										JOINT mixamorig:RightHandIndex3
										{
											OFFSET -6.095047 0.000000 0.000000
											CHANNELS 3 Xrotation Yrotation Zrotation
											JOINT mixamorig:RightHandIndex4
											{
												OFFSET -5.484772 0.000000 0.000000
												CHANNELS 3 Xrotation Yrotation Zrotation
												End Site
												{
													OFFSET 1.420593 5.237305 0.797056
												}
											}
										}
									}
								}
								JOINT mixamorig:RightHandRing1
								{
									OFFSET -22.246323 0.020569 -3.963762
									CHANNELS 3 Xrotation Yrotation Zrotation
									JOINT mixamorig:RightHandRing2
									{
										OFFSET -6.322128 0.000000 0.000000
										CHANNELS 3 Xrotation Yrotation Zrotation
										JOINT mixamorig:RightHandRing3
										{
											OFFSET -5.900024 0.000000 0.000000
											CHANNELS 3 Xrotation Yrotation Zrotation
											JOINT mixamorig:RightHandRing4
											{
												OFFSET -6.518356 0.000000 0.000000
												CHANNELS 3 Xrotation Yrotation Zrotation
												End Site
												{
													OFFSET 1.636398 6.232697 0.982186
												}
											}
										}
									}
								}
								JOINT mixamorig:RightHandPinky1
								{
									OFFSET -20.411011 -0.303314 -8.561701
									CHANNELS 3 Xrotation Yrotation Zrotation
									JOINT mixamorig:RightHandPinky2
									{
										OFFSET -6.907349 0.000000 0.000000
										CHANNELS 3 Xrotation Yrotation Zrotation
										JOINT mixamorig:RightHandPinky3
										{
											OFFSET -4.623840 0.000000 0.000000
											CHANNELS 3 Xrotation Yrotation Zrotation
											JOINT mixamorig:RightHandPinky4
											{
												OFFSET -5.218353 0.000000 0.000000
												CHANNELS 3 Xrotation Yrotation Zrotation
												End Site
												{
													OFFSET 0.602097 5.118835 0.816273
												}
											}
										}
									}
								}
							}
						}
					}
				}
			}
		}
	}
	JOINT mixamorig:LeftUpLeg
	{
		OFFSET 18.168400 -13.561905 -0.039000
		CHANNELS 3 Xrotation Yrotation Zrotation
		JOINT mixamorig:LeftLeg
		{
			OFFSET 0.577358 -80.825211 -3.695000
			CHANNELS 3 Xrotation Yrotation Zrotation
			JOINT mixamorig:LeftFoot
			{
				OFFSET -0.577356 -83.370262 -6.520700
				CHANNELS 3 Xrotation Yrotation Zrotation
				JOINT mixamorig:LeftToeBase
				{
					OFFSET 0.750401 -20.798306 25.135401
					CHANNELS 3 Xrotation Yrotation Zrotation
					JOINT mixamorig:LeftToe_End
					{
						OFFSET -0.000500 0.001200 19.917799
						CHANNELS 3 Xrotation Yrotation Zrotation
						End Site
						{
							OFFSET 0.000000 19.917805 0.000000
						}
					}
				}
			}
		}
	}
	JOINT mixamorig:RightUpLeg
	{
		OFFSET -18.162500 -13.585098 -0.041000
		CHANNELS 3 Xrotation Yrotation Zrotation
		JOINT mixamorig:RightLeg
		{
			OFFSET -0.595024 -80.945297 -3.631900
			CHANNELS 3 Xrotation Yrotation Zrotation
			JOINT mixamorig:RightFoot
			{
				OFFSET 0.595024 -83.218193 -6.561200
				CHANNELS 3 Xrotation Yrotation Zrotation
				JOINT mixamorig:RightToeBase
				{
					OFFSET -0.753601 -20.807106 25.115000
					CHANNELS 3 Xrotation Yrotation Zrotation
					JOINT mixamorig:RightToe_End
					{
						OFFSET 0.000299 0.001700 19.918200
						CHANNELS 3 Xrotation Yrotation Zrotation
						End Site
						{
							OFFSET 0.000000 19.918203 0.000000
						}
					}
				}
			}
		}
	}
}
MOTION
Frames: 4
Frame Time: 0.033333
9.046989 190.758698 55.667175 46.159429 -56.577196 99.871559 2.459027 3.323993 -6.425410 4.425619 3.819414 -15.421770 4.410509 4.033539 -15.380189 -7.376440 6.745662 -2.217502 1.210602 32.139400 -37.966870 0.000000 0.000000 0.000001 0.000000 0.000000 0.000001 0.000000 0.000000 0.000001 1.038016 0.193434 -11.544832 15.470956 38.811085 -77.421772 -0.000003 -0.033875 -0.000000 107.484781 1.872241 -12.615875 5.905605 6.812008 -81.830003 5.909446 6.812562 -81.862460 1.673379 4.503935 -40.747153 -0.000004 -0.000000 -0.000001 -0.948928 3.370675 -7.977316 6.595497 44.806707 2.990251 0.935573 19.959445 4.186597 0.000001 0.000002 -0.000001 5.907530 6.812292 -81.846205 5.907529 6.812286 -81.846273 1.673376 4.503927 -40.747157 -0.000001 -0.000001 -0.000003 5.907556 6.812309 -81.846211 5.907538 6.812294 -81.846273 1.673383 4.503926 -40.747153 0.000002 0.000000 0.000001 9.951792 7.387913 -81.835877 5.915030 2.726999 -81.936472 1.673383 4.503944 -40.747150 -0.000002 0.000001 -0.000001 1.007896 -0.651632 11.219936 -85.169133 60.102536 106.564195 -0.000839 94.838215 0.000785 17.962522 -27.027251 -10.537729 6.620888 -6.940535 87.293062 6.620901 -6.940570 87.293089 1.909498 -4.790421 43.445590 0.000002 0.000003 0.000000 -2.682071 2.829295 6.943604 8.791442 -57.006169 -2.287316 0.603502 -23.985586 -4.397427 -0.000001 -0.000001 0.000005 6.620887 -6.940535 87.293062 6.620874 -6.940524 87.293103 1.909493 -4.790420 43.445590 -0.000001 0.000001 -0.000001 6.620909 -6.940554 87.293069 6.620890 -6.940555 87.293103 1.909491 -4.790418 43.445590 -0.000003 -0.000001 -0.000000 6.620912 -6.940528 87.293076 6.620895 -6.940539 87.293117 1.909482 -4.790410 43.445590 0.000003 0.000000 0.000000 -57.019939 1.769668 53.565048 20.402724 -6.224032 9.528790 35.714929 -13.664343 -18.401901 -0.100546 0.000007 -0.000005 0.000001 0.000000 -0.000000 -74.446337 9.926988 -31.479345 43.633089 0.388647 -11.175980 -11.840562 1.617496 -9.181777 -0.786867 0.000014 0.000001 -0.000000 -0.000001 -0.000000 
11.093277 190.937286 57.063339 46.778299 -56.384492 101.622170 2.975639 3.004204 -7.400260 5.153240 3.664347 -14.965349 5.188260 3.875604 -14.908642 -6.990758 6.485377 -1.766453 1.919205 31.466227 -37.334091 -0.000000 -0.000000 0.000000 -0.000000 -0.000000 0.000000 -0.000000 -0.000000 0.000000 0.976254 0.894960 -11.910540 16.043995 36.643231 -79.071270 -0.000000 -0.008476 -0.000007 94.589452 -7.182093 -21.556832 5.905604 6.812007 -81.830003 5.909447 6.812562 -81.862460 1.673381 4.503935 -40.747157 0.000003 -0.000001 0.000004 -0.948933 3.370675 -7.977315 6.595506 44.806714 2.990245 0.935572 19.959450 4.186601 0.000004 -0.000001 0.000002 5.907528 6.812294 -81.846205 5.907530 6.812287 -81.846273 1.673378 4.503927 -40.747160 -0.000000 -0.000001 0.000003 5.907555 6.812306 -81.846211 5.907532 6.812290 -81.846266 1.673380 4.503928 -40.747157 -0.000001 0.000001 -0.000003 9.951794 7.387913 -81.835884 5.915038 2.727003 -81.936479 1.673382 4.503941 -40.747153 0.000004 -0.000002 0.000002 1.010585 -0.756237 11.288195 -79.899225 61.701306 102.323938 -0.002281 93.666189 0.002343 16.425208 -22.825092 -6.850567 6.620886 -6.940536 87.293062 6.620900 -6.940571 87.293089 1.909498 -4.790418 43.445590 0.000000 0.000003 -0.000001 -2.682077 2.829294 6.943603 8.791441 -57.006169 -2.287316 0.603499 -23.985584 -4.397422 0.000004 0.000002 0.000001 6.620884 -6.940534 87.293055 6.620876 -6.940528 87.293103 1.909497 -4.790424 43.445590 -0.000001 0.000002 -0.000003 6.620909 -6.940555 87.293062 6.620890 -6.940556 87.293103 1.909493 -4.790418 43.445590 -0.000001 0.000000 -0.000002 6.620908 -6.940532 87.293076 6.620893 -6.940542 87.293110 1.909482 -4.790407 43.445583 -0.000001 0.000000 0.000001 -61.494748 -3.747531 49.875428 35.129668 -4.483881 9.594925 41.782869 -22.632387 -14.770769 -0.336238 0.000009 0.000003 -0.000003 -0.000000 -0.000001 -74.952358 11.757891 -31.423740 42.773240 0.004886 -11.369354 -10.568905 1.394062 -8.671233 -0.192242 -0.000009 -0.000001 -0.000000 -0.000000 0.000000 
10.937042 193.667419 61.794174 49.331772 -58.204762 103.703548 3.375066 2.509223 -8.115051 5.792139 3.264998 -14.158312 5.874045 3.422846 -14.096909 -6.089695 6.414978 -1.236686 2.459804 32.147805 -35.157443 -0.000000 -0.000001 0.000000 -0.000000 -0.000001 0.000000 -0.000000 -0.000001 0.000000 0.877133 1.776787 -11.725220 11.300098 35.864859 -74.591212 0.000008 -0.322159 -0.000001 80.879535 -10.221252 -30.411930 5.905607 6.812011 -81.829997 5.909446 6.812559 -81.862460 1.673379 4.503933 -40.747160 -0.000000 0.000000 -0.000003 -0.948931 3.370681 -7.977315 6.595505 44.806717 2.990251 0.935579 19.959447 4.186598 0.000005 -0.000001 0.000002 5.907532 6.812296 -81.846205 5.907531 6.812285 -81.846273 1.673379 4.503924 -40.747157 -0.000002 -0.000000 0.000001 5.907558 6.812311 -81.846211 5.907540 6.812295 -81.846273 1.673380 4.503927 -40.747153 -0.000000 -0.000001 -0.000002 9.951791 7.387918 -81.835884 5.915035 2.727001 -81.936472 1.673386 4.503938 -40.747153 0.000000 0.000000 0.000000 1.006616 -0.901941 11.348750 -71.959055 63.202206 97.802025 -0.000725 92.490160 0.000752 17.002737 -18.592045 -5.649454 6.620885 -6.940536 87.293062 6.620902 -6.940574 87.293089 1.909501 -4.790417 43.445597 0.000000 0.000000 0.000001 -2.682078 2.829293 6.943601 8.791439 -57.006173 -2.287321 0.603500 -23.985586 -4.397427 -0.000001 0.000001 0.000002 6.620883 -6.940533 87.293062 6.620873 -6.940526 87.293103 1.909492 -4.790427 43.445594 -0.000003 -0.000001 -0.000001 6.620907 -6.940555 87.293069 6.620887 -6.940555 87.293096 1.909491 -4.790410 43.445590 -0.000001 0.000001 0.000000 6.620910 -6.940532 87.293076 6.620896 -6.940537 87.293123 1.909488 -4.790411 43.445587 0.000005 -0.000000 0.000000 -65.747968 -4.689633 44.968586 54.649320 -3.297909 6.443119 49.963315 -21.769474 -13.382171 0.051969 0.000006 -0.000004 0.000001 0.000000 -0.000003 -71.683703 11.856478 -32.605100 39.716672 1.226424 -11.361400 -8.718881 0.972315 -6.902400 -0.417424 0.000039 0.000001 0.000000 -0.000003 -0.000000 
9.449471 196.827988 69.079880 54.262260 -61.640258 106.034807 3.464436 2.095128 -7.636718 6.059593 2.725169 -12.406910 6.145818 2.797439 -12.356413 -4.360597 6.625775 -1.144171 3.585065 33.850821 -32.656770 -0.000000 -0.000000 0.000000 -0.000000 -0.000000 0.000000 -0.000000 -0.000000 0.000000 0.768515 2.232958 -10.656120 4.409296 35.923400 -67.488382 0.000000 -0.650918 -0.000005 70.123209 -7.023545 -32.735898 5.905601 6.812006 -81.829997 5.909449 6.812561 -81.862460 1.673379 4.503933 -40.747157 0.000002 0.000000 0.000002 -0.948928 3.370674 -7.977319 6.595506 44.806714 2.990252 0.935576 19.959449 4.186599 -0.000002 0.000001 0.000000 5.907527 6.812292 -81.846205 5.907531 6.812285 -81.846266 1.673380 4.503930 -40.747160 -0.000000 0.000002 -0.000003 5.907554 6.812306 -81.846205 5.907535 6.812295 -81.846266 1.673380 4.503922 -40.747150 -0.000000 0.000005 -0.000001 9.951786 7.387912 -81.835877 5.915035 2.727002 -81.936479 1.673385 4.503938 -40.747157 -0.000003 0.000001 0.000005 0.999824 -0.923705 11.321646 -62.458323 65.107754 92.171654 0.004200 91.547805 -0.004160 17.992959 -14.091874 -5.476287 6.620887 -6.940535 87.293062 6.620906 -6.940577 87.293089 1.909498 -4.790422 43.445590 -0.000001 0.000002 0.000000 -2.682073 2.829296 6.943602 8.791444 -57.006173 -2.287316 0.603501 -23.985584 -4.397423 0.000004 0.000000 -0.000000 6.620888 -6.940533 87.293062 6.620873 -6.940524 87.293110 1.909492 -4.790429 43.445594 -0.000000 -0.000002 -0.000004 6.620911 -6.940554 87.293062 6.620889 -6.940556 87.293103 1.909491 -4.790413 43.445587 -0.000003 -0.000001 -0.000000 6.620914 -6.940529 87.293076 6.620899 -6.940537 87.293117 1.909487 -4.790410 43.445583 0.000002 0.000000 -0.000000 -65.720039 -0.329305 39.304573 69.475530 -3.558809 1.969235 50.832119 -16.762008 -18.552766 0.179878 -0.000006 0.000011 -0.000000 -0.000001 0.000001 -66.652176 9.892789 -33.436303 36.584324 2.985072 -11.941151 -7.286127 0.534827 -4.045254 -0.618132 -0.000024 -0.000005 -0.000000 0.000000 -0.000000 
